<svg width="600" height="80" viewBox="0 0 600 80" xmlns="http://www.w3.org/2000/svg">
  <rect x="0" y="0" width="14" height="14" rx="2" fill="#0f0f0f"/>
  <rect x="0" y="18" width="14" height="14" rx="2" fill="#0f0f0f"/>
  <rect x="0" y="36" width="14" height="14" rx="2" fill="#0f0f0f"/>
  <rect x="0" y="54" width="14" height="14" rx="2" fill="#0f0f0f"/>
  <rect x="18" y="0" width="14" height="14" rx="2" fill="#00C8FF"/>
  <rect x="18" y="18" width="14" height="14" rx="2" fill="#0f0f0f" opacity="0.2"/>
  <rect x="18" y="36" width="14" height="14" rx="2" fill="#0f0f0f" opacity="0.2"/>
  <rect x="18" y="54" width="14" height="14" rx="2" fill="#00C8FF"/>
  <rect x="36" y="0" width="14" height="14" rx="2" fill="#0f0f0f" opacity="0.1"/>
  <rect x="36" y="18" width="14" height="14" rx="2" fill="#0f0f0f" opacity="0.05"/>
  <rect x="36" y="36" width="14" height="14" rx="2" fill="#0f0f0f" opacity="0.05"/>
  <rect x="36" y="54" width="14" height="14" rx="2" fill="#0f0f0f" opacity="0.1"/>
  <text x="72" y="42" font-family="Arial, sans-serif" font-weight="500" font-size="36" fill="#0f0f0f">Korda<tspan fill="#00C8FF">Core</tspan></text>
  <text x="73" y="62" font-family="monospace" font-size="11" fill="#888" letter-spacing="2.5">DATA · MODELS · ALPHA</text>
</svg>